<svg width="112" height="11" viewBox="0 0 112 11" fill="none" xmlns="http://www.w3.org/2000/svg">
<path d="M4.54688 9.13477L0.597656 5.80664L4.54688 2.48438L5.46094 3.41016L2.55469 5.79492L5.46094 8.20898L4.54688 9.13477ZM8.4082 10.2598H7.01953L11.1094 0.720703H12.5039L8.4082 10.2598ZM107.613 2.48438L111.562 5.80664L107.613 9.13477L106.705 8.20898L109.605 5.81836L106.705 3.41016L107.613 2.48438Z" fill="#8B8B8B"/>
<path d="M15.7383 2.56055V4.68164H18.6328V5.86523H15.7383V9H14.2734V1.3418H18.7969V2.56055H15.7383ZM22.0254 3.04688V6.92578C22.0254 7.25 22.0859 7.49609 22.207 7.66406C22.3281 7.82812 22.5117 7.91016 22.7578 7.91016C22.9961 7.91016 23.2246 7.8125 23.4434 7.61719C23.666 7.41797 23.9004 7.15039 24.1465 6.81445V3.04688H25.5762V9H24.3398L24.3047 8.12109C24.1797 8.27344 24.0527 8.41211 23.9238 8.53711C23.7949 8.66211 23.6543 8.76953 23.502 8.85938C23.3535 8.94531 23.1895 9.01172 23.0098 9.05859C22.834 9.10938 22.6387 9.13477 22.4238 9.13477C22.1191 9.13477 21.8516 9.08594 21.6211 8.98828C21.3945 8.88672 21.2051 8.74414 21.0527 8.56055C20.9004 8.37695 20.7852 8.1582 20.707 7.9043C20.6328 7.64648 20.5957 7.35938 20.5957 7.04297V3.04688H22.0254ZM29.127 1.83398H27.4453V0.720703H30.5918V7.88672H32.3086V9H27.2402V7.88672H29.127V1.83398ZM35.7246 1.83398H34.043V0.720703H37.1895V7.88672H38.9062V9H33.8379V7.88672H35.7246V1.83398ZM45.5625 6.68555C45.5625 7.10352 45.4844 7.4668 45.3281 7.77539C45.1758 8.08398 44.9609 8.33984 44.6836 8.54297C44.4062 8.74219 44.0762 8.89062 43.6934 8.98828C43.3105 9.08594 42.8926 9.13477 42.4395 9.13477C42.0371 9.13477 41.6484 9.11133 41.2734 9.06445C40.8984 9.01758 40.5273 8.93945 40.1602 8.83008V7.40625C40.3398 7.46875 40.5273 7.52734 40.7227 7.58203C40.918 7.63672 41.1133 7.68555 41.3086 7.72852C41.5078 7.76758 41.7051 7.79883 41.9004 7.82227C42.0957 7.8457 42.2852 7.85742 42.4688 7.85742C42.7422 7.85742 42.9746 7.83398 43.166 7.78711C43.3574 7.74023 43.5137 7.67578 43.6348 7.59375C43.7559 7.51172 43.8438 7.41406 43.8984 7.30078C43.9531 7.1875 43.9805 7.0625 43.9805 6.92578C43.9805 6.73828 43.9258 6.58203 43.8164 6.45703C43.7109 6.32812 43.5703 6.21484 43.3945 6.11719C43.2188 6.01953 43.0176 5.93164 42.791 5.85352C42.5684 5.77539 42.3398 5.69141 42.1055 5.60156C41.875 5.51172 41.6465 5.41016 41.4199 5.29688C41.1973 5.18359 40.998 5.04297 40.8223 4.875C40.6465 4.70703 40.5039 4.50781 40.3945 4.27734C40.2891 4.04297 40.2363 3.76172 40.2363 3.43359C40.2363 3.13281 40.291 2.84766 40.4004 2.57812C40.5098 2.30859 40.6816 2.07422 40.916 1.875C41.1504 1.67187 41.4512 1.51172 41.8184 1.39453C42.1855 1.27344 42.6289 1.21289 43.1484 1.21289C43.3008 1.21289 43.459 1.2207 43.623 1.23633C43.791 1.24805 43.9551 1.26562 44.1152 1.28906C44.2793 1.30859 44.4355 1.33398 44.584 1.36523C44.7363 1.39258 44.875 1.42188 45 1.45312V2.77148C44.875 2.72461 44.7383 2.68164 44.5898 2.64258C44.4414 2.60352 44.2871 2.57031 44.127 2.54297C43.9707 2.51172 43.8125 2.48828 43.6523 2.47266C43.4922 2.45703 43.3398 2.44922 43.1953 2.44922C42.9414 2.44922 42.7266 2.4707 42.5508 2.51367C42.375 2.55273 42.2305 2.60937 42.1172 2.68359C42.0039 2.75391 41.9219 2.8418 41.8711 2.94727C41.8203 3.05273 41.7949 3.16992 41.7949 3.29883C41.7949 3.45898 41.8477 3.59766 41.9531 3.71484C42.0625 3.82812 42.2051 3.93164 42.3809 4.02539C42.5605 4.11523 42.7617 4.20117 42.9844 4.2832C43.2109 4.36133 43.4414 4.44727 43.6758 4.54102C43.9141 4.63086 44.1445 4.73438 44.3672 4.85156C44.5938 4.96875 44.7949 5.11133 44.9707 5.2793C45.1504 5.44727 45.293 5.64648 45.3984 5.87695C45.5078 6.10352 45.5625 6.37305 45.5625 6.68555ZM51.9082 8.94141C51.6504 9 51.3906 9.04688 51.1289 9.08203C50.8672 9.11719 50.6191 9.13477 50.3848 9.13477C49.9941 9.13477 49.6562 9.09375 49.3711 9.01172C49.0898 8.92969 48.8555 8.80469 48.668 8.63672C48.4844 8.46875 48.3477 8.25586 48.2578 7.99805C48.1719 7.73633 48.1289 7.42578 48.1289 7.06641V4.16016H46.5293V3.04688H48.1289V1.52344L49.5938 1.14258V3.04688H51.9082V4.16016H49.5938V6.96094C49.5938 7.30078 49.6719 7.55859 49.8281 7.73438C49.9844 7.90625 50.2461 7.99219 50.6133 7.99219C50.8477 7.99219 51.0762 7.97266 51.2988 7.93359C51.5215 7.89453 51.7246 7.84961 51.9082 7.79883V8.94141ZM57.3281 9L57.293 8.2207C57.168 8.35352 57.0371 8.47656 56.9004 8.58984C56.7637 8.69922 56.6133 8.79492 56.4492 8.87695C56.2852 8.95898 56.1055 9.02148 55.9102 9.06445C55.7188 9.11133 55.5078 9.13477 55.2773 9.13477C54.9727 9.13477 54.7051 9.08984 54.4746 9C54.2441 8.91016 54.0508 8.78516 53.8945 8.625C53.7383 8.46484 53.6191 8.27148 53.5371 8.04492C53.459 7.81836 53.4199 7.56836 53.4199 7.29492C53.4199 7.01367 53.4785 6.75391 53.5957 6.51562C53.7168 6.27734 53.8984 6.07227 54.1406 5.90039C54.3867 5.72852 54.6914 5.59375 55.0547 5.49609C55.4219 5.39844 55.8516 5.34961 56.3438 5.34961H57.123V4.99219C57.123 4.83984 57.1016 4.70312 57.0586 4.58203C57.0156 4.45703 56.9453 4.35156 56.8477 4.26562C56.7539 4.17969 56.6309 4.11328 56.4785 4.06641C56.3262 4.01953 56.1387 3.99609 55.916 3.99609C55.5645 3.99609 55.2168 4.03711 54.873 4.11914C54.5332 4.19727 54.2031 4.30859 53.8828 4.45312V3.31055C54.168 3.19727 54.4961 3.10352 54.8672 3.0293C55.2422 2.95508 55.6309 2.91797 56.0332 2.91797C56.4746 2.91797 56.8535 2.96094 57.1699 3.04688C57.4863 3.12891 57.7461 3.25391 57.9492 3.42188C58.1562 3.58984 58.3086 3.80078 58.4062 4.05469C58.5039 4.30469 58.5527 4.59766 58.5527 4.93359V9H57.3281ZM57.123 6.36914H56.25C56.0078 6.36914 55.8027 6.39258 55.6348 6.43945C55.4668 6.48633 55.3301 6.55078 55.2246 6.63281C55.1191 6.71484 55.041 6.81055 54.9902 6.91992C54.9434 7.02539 54.9199 7.13867 54.9199 7.25977C54.9199 7.50195 54.998 7.6875 55.1543 7.81641C55.3105 7.94141 55.5234 8.00391 55.793 8.00391C55.9922 8.00391 56.1992 7.93164 56.4141 7.78711C56.6289 7.64258 56.8652 7.43555 57.123 7.16602V6.36914ZM65.0098 8.77148C64.7285 8.88477 64.4375 8.96875 64.1367 9.02344C63.8359 9.07812 63.5215 9.10547 63.1934 9.10547C62.7207 9.10547 62.2969 9.04102 61.9219 8.91211C61.5469 8.7832 61.2285 8.5918 60.9668 8.33789C60.7051 8.08398 60.5039 7.76953 60.3633 7.39453C60.2266 7.01953 60.1582 6.58594 60.1582 6.09375C60.1582 5.61719 60.2324 5.18555 60.3809 4.79883C60.5332 4.41211 60.7461 4.08203 61.0195 3.80859C61.293 3.53516 61.6211 3.32422 62.0039 3.17578C62.3906 3.02734 62.8203 2.95312 63.293 2.95312C63.6797 2.95312 64.0039 2.97461 64.2656 3.01758C64.5312 3.05664 64.7695 3.10742 64.9805 3.16992V4.55859C64.7383 4.4375 64.4746 4.34375 64.1895 4.27734C63.9082 4.21094 63.6406 4.17773 63.3867 4.17773C63.1211 4.17773 62.8828 4.22266 62.6719 4.3125C62.4609 4.40234 62.2832 4.52734 62.1387 4.6875C61.9941 4.84766 61.8828 5.04297 61.8047 5.27344C61.7305 5.5 61.6934 5.75 61.6934 6.02344C61.6934 6.30859 61.7344 6.56445 61.8164 6.79102C61.8984 7.01758 62.0137 7.21094 62.1621 7.37109C62.3145 7.52734 62.4961 7.64844 62.707 7.73438C62.918 7.81641 63.1523 7.85742 63.4102 7.85742C63.5352 7.85742 63.666 7.84961 63.8027 7.83398C63.9434 7.81445 64.082 7.78906 64.2188 7.75781C64.3594 7.72266 64.4961 7.68359 64.6289 7.64062C64.7656 7.59766 64.8926 7.55078 65.0098 7.5V8.77148ZM70.4766 9L68.2793 6.02344V9H66.8496V0.720703H68.2793V5.56641L70.3594 3.04688H72.1465L69.7324 5.75977L72.3457 9H70.4766ZM78.5508 6.68555C78.5508 7.10352 78.4727 7.4668 78.3164 7.77539C78.1641 8.08398 77.9492 8.33984 77.6719 8.54297C77.3945 8.74219 77.0645 8.89062 76.6816 8.98828C76.2988 9.08594 75.8809 9.13477 75.4277 9.13477C75.0254 9.13477 74.6367 9.11133 74.2617 9.06445C73.8867 9.01758 73.5156 8.93945 73.1484 8.83008V7.40625C73.3281 7.46875 73.5156 7.52734 73.7109 7.58203C73.9062 7.63672 74.1016 7.68555 74.2969 7.72852C74.4961 7.76758 74.6934 7.79883 74.8887 7.82227C75.084 7.8457 75.2734 7.85742 75.457 7.85742C75.7305 7.85742 75.9629 7.83398 76.1543 7.78711C76.3457 7.74023 76.502 7.67578 76.623 7.59375C76.7441 7.51172 76.832 7.41406 76.8867 7.30078C76.9414 7.1875 76.9688 7.0625 76.9688 6.92578C76.9688 6.73828 76.9141 6.58203 76.8047 6.45703C76.6992 6.32812 76.5586 6.21484 76.3828 6.11719C76.207 6.01953 76.0059 5.93164 75.7793 5.85352C75.5566 5.77539 75.3281 5.69141 75.0938 5.60156C74.8633 5.51172 74.6348 5.41016 74.4082 5.29688C74.1855 5.18359 73.9863 5.04297 73.8105 4.875C73.6348 4.70703 73.4922 4.50781 73.3828 4.27734C73.2773 4.04297 73.2246 3.76172 73.2246 3.43359C73.2246 3.13281 73.2793 2.84766 73.3887 2.57812C73.498 2.30859 73.6699 2.07422 73.9043 1.875C74.1387 1.67187 74.4395 1.51172 74.8066 1.39453C75.1738 1.27344 75.6172 1.21289 76.1367 1.21289C76.2891 1.21289 76.4473 1.2207 76.6113 1.23633C76.7793 1.24805 76.9434 1.26562 77.1035 1.28906C77.2676 1.30859 77.4238 1.33398 77.5723 1.36523C77.7246 1.39258 77.8633 1.42188 77.9883 1.45312V2.77148C77.8633 2.72461 77.7266 2.68164 77.5781 2.64258C77.4297 2.60352 77.2754 2.57031 77.1152 2.54297C76.959 2.51172 76.8008 2.48828 76.6406 2.47266C76.4805 2.45703 76.3281 2.44922 76.1836 2.44922C75.9297 2.44922 75.7148 2.4707 75.5391 2.51367C75.3633 2.55273 75.2188 2.60937 75.1055 2.68359C74.9922 2.75391 74.9102 2.8418 74.8594 2.94727C74.8086 3.05273 74.7832 3.16992 74.7832 3.29883C74.7832 3.45898 74.8359 3.59766 74.9414 3.71484C75.0508 3.82812 75.1934 3.93164 75.3691 4.02539C75.5488 4.11523 75.75 4.20117 75.9727 4.2832C76.1992 4.36133 76.4297 4.44727 76.6641 4.54102C76.9023 4.63086 77.1328 4.73438 77.3555 4.85156C77.582 4.96875 77.7832 5.11133 77.959 5.2793C78.1387 5.44727 78.2812 5.64648 78.3867 5.87695C78.4961 6.10352 78.5508 6.37305 78.5508 6.68555ZM84.8965 8.94141C84.6387 9 84.3789 9.04688 84.1172 9.08203C83.8555 9.11719 83.6074 9.13477 83.373 9.13477C82.9824 9.13477 82.6445 9.09375 82.3594 9.01172C82.0781 8.92969 81.8438 8.80469 81.6562 8.63672C81.4727 8.46875 81.3359 8.25586 81.2461 7.99805C81.1602 7.73633 81.1172 7.42578 81.1172 7.06641V4.16016H79.5176V3.04688H81.1172V1.52344L82.582 1.14258V3.04688H84.8965V4.16016H82.582V6.96094C82.582 7.30078 82.6602 7.55859 82.8164 7.73438C82.9727 7.90625 83.2344 7.99219 83.6016 7.99219C83.8359 7.99219 84.0645 7.97266 84.2871 7.93359C84.5098 7.89453 84.7129 7.84961 84.8965 7.79883V8.94141ZM91.7695 5.56641C91.7695 5.66406 91.7656 5.79102 91.7578 5.94727C91.7539 6.10352 91.7461 6.25 91.7344 6.38672H87.8203C87.8203 6.64844 87.8594 6.87891 87.9375 7.07812C88.0195 7.27734 88.1328 7.44531 88.2773 7.58203C88.4258 7.71484 88.6016 7.81641 88.8047 7.88672C89.0117 7.95703 89.2402 7.99219 89.4902 7.99219C89.7793 7.99219 90.0879 7.9707 90.416 7.92773C90.748 7.88086 91.0918 7.80664 91.4473 7.70508V8.8418C91.2949 8.88477 91.1289 8.92383 90.9492 8.95898C90.7695 8.99414 90.5859 9.02539 90.3984 9.05273C90.2109 9.08008 90.0215 9.09961 89.8301 9.11133C89.6387 9.12695 89.4531 9.13477 89.2734 9.13477C88.8203 9.13477 88.4141 9.07031 88.0547 8.94141C87.6953 8.8125 87.3906 8.62305 87.1406 8.37305C86.8906 8.11914 86.6992 7.80664 86.5664 7.43555C86.4336 7.06445 86.3672 6.63477 86.3672 6.14648C86.3672 5.66211 86.4336 5.22266 86.5664 4.82812C86.6992 4.42969 86.8867 4.08984 87.1289 3.80859C87.3711 3.52344 87.6641 3.30469 88.0078 3.15234C88.3555 2.99609 88.7422 2.91797 89.168 2.91797C89.5898 2.91797 89.9629 2.98437 90.2871 3.11719C90.6113 3.24609 90.8828 3.42773 91.1016 3.66211C91.3203 3.89648 91.4863 4.17578 91.5996 4.5C91.7129 4.82422 91.7695 5.17969 91.7695 5.56641ZM90.3164 5.36133C90.3203 5.12695 90.291 4.92383 90.2285 4.75195C90.166 4.57617 90.0801 4.43164 89.9707 4.31836C89.8652 4.20508 89.7402 4.12109 89.5957 4.06641C89.4551 4.01172 89.3027 3.98438 89.1387 3.98438C88.7793 3.98438 88.4844 4.10547 88.2539 4.34766C88.0234 4.58594 87.8867 4.92383 87.8438 5.36133H90.3164ZM96.5098 9H94.8633L92.502 3.04688H94.0957L95.332 6.42188L95.7012 7.51172L96.0645 6.46875L97.3125 3.04688H98.8477L96.5098 9ZM104.965 5.56641C104.965 5.66406 104.961 5.79102 104.953 5.94727C104.949 6.10352 104.941 6.25 104.93 6.38672H101.016C101.016 6.64844 101.055 6.87891 101.133 7.07812C101.215 7.27734 101.328 7.44531 101.473 7.58203C101.621 7.71484 101.797 7.81641 102 7.88672C102.207 7.95703 102.436 7.99219 102.686 7.99219C102.975 7.99219 103.283 7.9707 103.611 7.92773C103.943 7.88086 104.287 7.80664 104.643 7.70508V8.8418C104.49 8.88477 104.324 8.92383 104.145 8.95898C103.965 8.99414 103.781 9.02539 103.594 9.05273C103.406 9.08008 103.217 9.09961 103.025 9.11133C102.834 9.12695 102.648 9.13477 102.469 9.13477C102.016 9.13477 101.609 9.07031 101.25 8.94141C100.891 8.8125 100.586 8.62305 100.336 8.37305C100.086 8.11914 99.8945 7.80664 99.7617 7.43555C99.6289 7.06445 99.5625 6.63477 99.5625 6.14648C99.5625 5.66211 99.6289 5.22266 99.7617 4.82812C99.8945 4.42969 100.082 4.08984 100.324 3.80859C100.566 3.52344 100.859 3.30469 101.203 3.15234C101.551 2.99609 101.938 2.91797 102.363 2.91797C102.785 2.91797 103.158 2.98437 103.482 3.11719C103.807 3.24609 104.078 3.42773 104.297 3.66211C104.516 3.89648 104.682 4.17578 104.795 4.5C104.908 4.82422 104.965 5.17969 104.965 5.56641ZM103.512 5.36133C103.516 5.12695 103.486 4.92383 103.424 4.75195C103.361 4.57617 103.275 4.43164 103.166 4.31836C103.061 4.20508 102.936 4.12109 102.791 4.06641C102.65 4.01172 102.498 3.98438 102.334 3.98438C101.975 3.98438 101.68 4.10547 101.449 4.34766C101.219 4.58594 101.082 4.92383 101.039 5.36133H103.512Z" fill="#D9D9D9"/>
</svg>
